<mxfile host="app.diagrams.net" modified="2024-04-14T09:40:25.775Z" agent="Mozilla/5.0 (Windows NT 10.0; Win64; x64) AppleWebKit/537.36 (KHTML, like Gecko) Chrome/123.0.0.0 Safari/537.36 Edg/123.0.0.0" etag="vGew6xINzrLw9zk_cHZT" version="24.2.5" type="device">
  <diagram name="Page-1" id="e7e014a7-5840-1c2e-5031-d8a46d1fe8dd">
    <mxGraphModel dx="1042" dy="569" grid="1" gridSize="10" guides="1" tooltips="1" connect="1" arrows="1" fold="1" page="1" pageScale="1" pageWidth="1169" pageHeight="826" background="none" math="0" shadow="0">
      <root>
        <mxCell id="0" />
        <mxCell id="1" parent="0" />
        <mxCell id="3PsEclQJy9mfpT5dkrBI-47" style="edgeStyle=orthogonalEdgeStyle;rounded=0;orthogonalLoop=1;jettySize=auto;html=1;exitX=1;exitY=0.3333333333333333;exitDx=0;exitDy=0;exitPerimeter=0;endArrow=none;endFill=0;" parent="1" source="3PsEclQJy9mfpT5dkrBI-41" target="3PsEclQJy9mfpT5dkrBI-42" edge="1">
          <mxGeometry relative="1" as="geometry" />
        </mxCell>
        <mxCell id="8bQkXMO3Qzf4ezNRRsRy-16" style="edgeStyle=orthogonalEdgeStyle;rounded=0;orthogonalLoop=1;jettySize=auto;html=1;exitX=1;exitY=1;exitDx=0;exitDy=0;exitPerimeter=0;endArrow=none;endFill=0;" parent="1" source="3PsEclQJy9mfpT5dkrBI-41" target="3PsEclQJy9mfpT5dkrBI-44" edge="1">
          <mxGeometry relative="1" as="geometry">
            <Array as="points">
              <mxPoint x="240" y="770" />
            </Array>
          </mxGeometry>
        </mxCell>
        <mxCell id="3PsEclQJy9mfpT5dkrBI-41" value="用户" style="shape=umlActor;verticalLabelPosition=bottom;verticalAlign=top;html=1;" parent="1" vertex="1">
          <mxGeometry x="210" y="570" width="30" height="60" as="geometry" />
        </mxCell>
        <mxCell id="8bQkXMO3Qzf4ezNRRsRy-2" style="edgeStyle=orthogonalEdgeStyle;rounded=0;orthogonalLoop=1;jettySize=auto;html=1;endArrow=none;endFill=0;" parent="1" source="3PsEclQJy9mfpT5dkrBI-42" target="3PsEclQJy9mfpT5dkrBI-45" edge="1">
          <mxGeometry relative="1" as="geometry" />
        </mxCell>
        <mxCell id="8bQkXMO3Qzf4ezNRRsRy-5" style="rounded=0;orthogonalLoop=1;jettySize=auto;html=1;endArrow=none;endFill=0;entryX=0.004;entryY=0.295;entryDx=0;entryDy=0;entryPerimeter=0;exitX=0.824;exitY=0.885;exitDx=0;exitDy=0;exitPerimeter=0;" parent="1" source="3PsEclQJy9mfpT5dkrBI-42" target="3PsEclQJy9mfpT5dkrBI-43" edge="1">
          <mxGeometry relative="1" as="geometry" />
        </mxCell>
        <mxCell id="3PsEclQJy9mfpT5dkrBI-42" value="：读卡器" style="shape=umlBoundary;whiteSpace=wrap;html=1;" parent="1" vertex="1">
          <mxGeometry x="350" y="440" width="100" height="80" as="geometry" />
        </mxCell>
        <mxCell id="3PsEclQJy9mfpT5dkrBI-43" value="：屏幕" style="shape=umlBoundary;whiteSpace=wrap;html=1;" parent="1" vertex="1">
          <mxGeometry x="530" y="600" width="100" height="80" as="geometry" />
        </mxCell>
        <mxCell id="8bQkXMO3Qzf4ezNRRsRy-18" style="edgeStyle=orthogonalEdgeStyle;rounded=0;orthogonalLoop=1;jettySize=auto;html=1;endArrow=none;endFill=0;" parent="1" source="3PsEclQJy9mfpT5dkrBI-44" target="3PsEclQJy9mfpT5dkrBI-45" edge="1">
          <mxGeometry relative="1" as="geometry" />
        </mxCell>
        <mxCell id="8bQkXMO3Qzf4ezNRRsRy-31" style="rounded=0;orthogonalLoop=1;jettySize=auto;html=1;endArrow=none;endFill=0;exitX=0.888;exitY=0.16;exitDx=0;exitDy=0;exitPerimeter=0;entryX=-0.008;entryY=0.715;entryDx=0;entryDy=0;entryPerimeter=0;" parent="1" source="3PsEclQJy9mfpT5dkrBI-44" target="3PsEclQJy9mfpT5dkrBI-43" edge="1">
          <mxGeometry relative="1" as="geometry" />
        </mxCell>
        <mxCell id="3PsEclQJy9mfpT5dkrBI-44" value="：键盘" style="shape=umlBoundary;whiteSpace=wrap;html=1;" parent="1" vertex="1">
          <mxGeometry x="350" y="730" width="100" height="80" as="geometry" />
        </mxCell>
        <mxCell id="3PsEclQJy9mfpT5dkrBI-45" value="&lt;div&gt;&lt;span style=&quot;background-color: initial;&quot;&gt;：中央系统&lt;/span&gt;&lt;br&gt;&lt;/div&gt;" style="ellipse;shape=umlEntity;whiteSpace=wrap;html=1;" parent="1" vertex="1">
          <mxGeometry x="670" y="440" width="80" height="80" as="geometry" />
        </mxCell>
        <mxCell id="8bQkXMO3Qzf4ezNRRsRy-1" value="1.插入卡" style="html=1;verticalAlign=bottom;endArrow=open;curved=0;rounded=0;endFill=0;" parent="1" edge="1">
          <mxGeometry width="80" relative="1" as="geometry">
            <mxPoint x="300" y="580" as="sourcePoint" />
            <mxPoint x="380" y="580" as="targetPoint" />
          </mxGeometry>
        </mxCell>
        <mxCell id="8bQkXMO3Qzf4ezNRRsRy-3" value="1.2.验证卡" style="html=1;verticalAlign=bottom;endArrow=block;curved=0;rounded=0;" parent="1" edge="1">
          <mxGeometry width="80" relative="1" as="geometry">
            <mxPoint x="490" y="470" as="sourcePoint" />
            <mxPoint x="570" y="470" as="targetPoint" />
          </mxGeometry>
        </mxCell>
        <mxCell id="8bQkXMO3Qzf4ezNRRsRy-4" value="1.3.卡有效性" style="html=1;verticalAlign=bottom;endArrow=open;dashed=1;endSize=8;curved=0;rounded=0;" parent="1" edge="1">
          <mxGeometry relative="1" as="geometry">
            <mxPoint x="570" y="500" as="sourcePoint" />
            <mxPoint x="490" y="500" as="targetPoint" />
          </mxGeometry>
        </mxCell>
        <mxCell id="8bQkXMO3Qzf4ezNRRsRy-14" style="edgeStyle=orthogonalEdgeStyle;rounded=0;orthogonalLoop=1;jettySize=auto;html=1;entryX=0.856;entryY=0.125;entryDx=0;entryDy=0;entryPerimeter=0;endArrow=none;endFill=0;" parent="1" source="3PsEclQJy9mfpT5dkrBI-42" target="3PsEclQJy9mfpT5dkrBI-42" edge="1">
          <mxGeometry relative="1" as="geometry">
            <Array as="points">
              <mxPoint x="400" y="420" />
              <mxPoint x="470" y="420" />
              <mxPoint x="470" y="450" />
            </Array>
          </mxGeometry>
        </mxCell>
        <mxCell id="8bQkXMO3Qzf4ezNRRsRy-19" value="2.1.验证密码" style="html=1;verticalAlign=bottom;endArrow=block;curved=0;rounded=0;" parent="1" edge="1">
          <mxGeometry width="80" relative="1" as="geometry">
            <mxPoint x="505" y="760" as="sourcePoint" />
            <mxPoint x="585" y="760" as="targetPoint" />
          </mxGeometry>
        </mxCell>
        <mxCell id="8bQkXMO3Qzf4ezNRRsRy-20" value="2.2.密码有效性" style="html=1;verticalAlign=bottom;endArrow=open;dashed=1;endSize=8;curved=0;rounded=0;" parent="1" edge="1">
          <mxGeometry relative="1" as="geometry">
            <mxPoint x="585" y="790" as="sourcePoint" />
            <mxPoint x="505" y="790" as="targetPoint" />
          </mxGeometry>
        </mxCell>
        <mxCell id="8bQkXMO3Qzf4ezNRRsRy-25" value="" style="group" parent="1" vertex="1" connectable="0">
          <mxGeometry x="470" y="520" width="95" height="80" as="geometry" />
        </mxCell>
        <mxCell id="8bQkXMO3Qzf4ezNRRsRy-7" value="1.4.显示卡无效" style="html=1;verticalAlign=bottom;endArrow=open;curved=0;rounded=0;endFill=0;" parent="8bQkXMO3Qzf4ezNRRsRy-25" edge="1">
          <mxGeometry x="0.2" y="18" width="80" relative="1" as="geometry">
            <mxPoint y="10" as="sourcePoint" />
            <mxPoint x="60" y="80" as="targetPoint" />
            <mxPoint x="1" as="offset" />
          </mxGeometry>
        </mxCell>
        <mxCell id="8bQkXMO3Qzf4ezNRRsRy-24" value="[卡无效］" style="text;html=1;align=center;verticalAlign=middle;resizable=0;points=[];autosize=1;strokeColor=none;fillColor=none;" parent="8bQkXMO3Qzf4ezNRRsRy-25" vertex="1">
          <mxGeometry x="25" width="70" height="30" as="geometry" />
        </mxCell>
        <mxCell id="8bQkXMO3Qzf4ezNRRsRy-26" value="" style="group" parent="1" vertex="1" connectable="0">
          <mxGeometry x="400" y="371" width="80" height="42" as="geometry" />
        </mxCell>
        <mxCell id="8bQkXMO3Qzf4ezNRRsRy-15" value="1.5.退出卡" style="html=1;verticalAlign=bottom;endArrow=open;curved=0;rounded=0;endFill=0;" parent="8bQkXMO3Qzf4ezNRRsRy-26" edge="1">
          <mxGeometry width="80" relative="1" as="geometry">
            <mxPoint y="42" as="sourcePoint" />
            <mxPoint x="80" y="42" as="targetPoint" />
            <mxPoint as="offset" />
          </mxGeometry>
        </mxCell>
        <mxCell id="8bQkXMO3Qzf4ezNRRsRy-21" value="[卡无效］" style="text;html=1;align=center;verticalAlign=middle;resizable=0;points=[];autosize=1;strokeColor=none;fillColor=none;" parent="8bQkXMO3Qzf4ezNRRsRy-26" vertex="1">
          <mxGeometry x="10" width="70" height="30" as="geometry" />
        </mxCell>
        <mxCell id="8bQkXMO3Qzf4ezNRRsRy-30" value="" style="group" parent="1" vertex="1" connectable="0">
          <mxGeometry x="250" y="720" width="115" height="40" as="geometry" />
        </mxCell>
        <mxCell id="8bQkXMO3Qzf4ezNRRsRy-17" value="2.输入密码" style="html=1;verticalAlign=bottom;endArrow=open;curved=0;rounded=0;endFill=0;" parent="8bQkXMO3Qzf4ezNRRsRy-30" edge="1">
          <mxGeometry width="80" relative="1" as="geometry">
            <mxPoint y="40" as="sourcePoint" />
            <mxPoint x="80" y="40" as="targetPoint" />
          </mxGeometry>
        </mxCell>
        <mxCell id="8bQkXMO3Qzf4ezNRRsRy-33" style="rounded=0;orthogonalLoop=1;jettySize=auto;html=1;exitX=1;exitY=0.3333333333333333;exitDx=0;exitDy=0;exitPerimeter=0;endArrow=none;endFill=0;entryX=0;entryY=0.625;entryDx=0;entryDy=0;entryPerimeter=0;" parent="1" source="3PsEclQJy9mfpT5dkrBI-41" target="3PsEclQJy9mfpT5dkrBI-42" edge="1">
          <mxGeometry relative="1" as="geometry">
            <mxPoint x="347" y="498" as="targetPoint" />
          </mxGeometry>
        </mxCell>
        <mxCell id="8bQkXMO3Qzf4ezNRRsRy-34" value="2.4.退出卡" style="html=1;verticalAlign=bottom;endArrow=open;curved=0;rounded=0;endFill=0;" parent="1" edge="1">
          <mxGeometry width="80" relative="1" as="geometry">
            <mxPoint x="250" y="560" as="sourcePoint" />
            <mxPoint x="320" y="500" as="targetPoint" />
          </mxGeometry>
        </mxCell>
        <mxCell id="8bQkXMO3Qzf4ezNRRsRy-28" value="*[卡有效&amp;amp;&amp;amp;密码无效］" style="text;html=1;align=center;verticalAlign=middle;resizable=0;points=[];autosize=1;strokeColor=none;fillColor=none;" parent="1" vertex="1">
          <mxGeometry x="237.5" y="720" width="140" height="30" as="geometry" />
        </mxCell>
        <mxCell id="9gKEN5-RUIw_5dtdz4q9-2" value="" style="group" vertex="1" connectable="0" parent="1">
          <mxGeometry x="425" y="640" width="95" height="80" as="geometry" />
        </mxCell>
        <mxCell id="8bQkXMO3Qzf4ezNRRsRy-32" value="2.3.显示密码无效" style="html=1;verticalAlign=bottom;endArrow=open;curved=0;rounded=0;endFill=0;" parent="9gKEN5-RUIw_5dtdz4q9-2" edge="1">
          <mxGeometry x="-0.0796" y="10" width="80" relative="1" as="geometry">
            <mxPoint x="15" y="80" as="sourcePoint" />
            <mxPoint x="95" y="10" as="targetPoint" />
            <mxPoint as="offset" />
          </mxGeometry>
        </mxCell>
        <mxCell id="9gKEN5-RUIw_5dtdz4q9-1" value="[密码无效］" style="text;html=1;align=center;verticalAlign=middle;resizable=0;points=[];autosize=1;strokeColor=none;fillColor=none;" vertex="1" parent="9gKEN5-RUIw_5dtdz4q9-2">
          <mxGeometry width="90" height="30" as="geometry" />
        </mxCell>
      </root>
    </mxGraphModel>
  </diagram>
</mxfile>
